<svg width="20" height="20" viewBox="0 0 20 20" fill="none" xmlns="http://www.w3.org/2000/svg">
<rect x="0.5" y="0.5" width="19" height="19" rx="9.5" fill="white" stroke="#E7E8E8"/>
<path d="M12.6087 10.4349H10.4348V12.6088C10.4348 12.8479 10.2391 13.0436 9.99999 13.0436C9.76086 13.0436 9.56521 12.8479 9.56521 12.6088V10.4349H7.3913C7.15216 10.4349 6.95651 10.2392 6.95651 10.0001C6.95651 9.76098 7.15216 9.56532 7.3913 9.56532H9.56521V7.39141C9.56521 7.15228 9.76086 6.95663 9.99999 6.95663C10.2391 6.95663 10.4348 7.15228 10.4348 7.39141V9.56532H12.6087C12.8478 9.56532 13.0435 9.76098 13.0435 10.0001C13.0435 10.2392 12.8478 10.4349 12.6087 10.4349Z" fill="#111819"/>
</svg>
