<svg xmlns="http://www.w3.org/2000/svg" width="18.573" height="21.942"><path d="M4.212 5.352H2.79c-.982 0-1.798.76-1.868 1.74L.005 19.936a1.873 1.873 0 0 0 1.868 2.006H16.7a1.874 1.874 0 0 0 1.868-2.006l-.917-12.844a1.873 1.873 0 0 0-1.869-1.74h-1.411v-.268A5.084 5.084 0 0 0 9.286 0C6.581 0 4.081 2.155 4.202 5.084l.01.268Zm10.159 1.605v4.014a.803.803 0 0 1-1.606 0V6.957H5.808v4.014a.803.803 0 0 1-1.606 0s.07-1.876.047-4.014H2.79a.267.267 0 0 0-.266.249L1.606 20.05a.267.267 0 0 0 .267.287H16.7a.27.27 0 0 0 .267-.287l-.918-12.844a.267.267 0 0 0-.267-.249h-1.411Zm-1.606-1.605v-.268a3.479 3.479 0 1 0-6.957 0v.268h6.957Z" fill-rule="evenodd" data-name="Path 13"/></svg>