<svg xmlns="http://www.w3.org/2000/svg" width="29.097" height="29.392" viewBox="0 0 29.097 29.392">
  <g id="best-customer-experience" transform="translate(-9.623 -7)">
    <path id="Path_46" data-name="Path 46" d="M108.2,137.617a4.152,4.152,0,1,0,1.127-1.427" transform="translate(-92.083 -120.463)" fill="none" stroke="#fff" stroke-linecap="round" stroke-linejoin="round" stroke-miterlimit="10" stroke-width="1"/>
    <path id="Path_47" data-name="Path 47" d="M49.682,283.489a8.645,8.645,0,0,0-6.517-2.962h-.816a7.637,7.637,0,0,0-7.461,6.01h0a1.67,1.67,0,0,0,1.631,2.026h7.508" transform="translate(-23.308 -257.43)" fill="none" stroke="#fff" stroke-linecap="round" stroke-linejoin="round" stroke-miterlimit="10" stroke-width="1"/>
    <path id="Path_48" data-name="Path 48" d="M137.7,7.642l.734,1.234a.29.29,0,0,0,.186.135l1.4.316a.29.29,0,0,1,.154.475l-.947,1.079a.29.29,0,0,0-.071.218l.132,1.43a.29.29,0,0,1-.4.293l-1.319-.567a.291.291,0,0,0-.229,0l-1.319.567a.29.29,0,0,1-.4-.293l.132-1.43a.29.29,0,0,0-.071-.218L134.724,9.8a.29.29,0,0,1,.154-.475l1.4-.316a.291.291,0,0,0,.186-.135l.734-1.234A.29.29,0,0,1,137.7,7.642Z" transform="translate(-117.41)" fill="none" stroke="#fff" stroke-linecap="round" stroke-linejoin="round" stroke-miterlimit="10" stroke-width="1"/>
    <path id="Path_49" data-name="Path 49" d="M12.622,24.554l.6,1.011a.238.238,0,0,0,.152.11l1.147.259a.238.238,0,0,1,.126.389l-.776.884a.238.238,0,0,0-.058.179l.108,1.171a.238.238,0,0,1-.331.24l-1.08-.464a.238.238,0,0,0-.188,0l-1.08.464a.238.238,0,0,1-.331-.24l.108-1.171a.238.238,0,0,0-.058-.179l-.775-.884a.238.238,0,0,1,.126-.389l1.147-.259a.238.238,0,0,0,.152-.11l.6-1.011A.238.238,0,0,1,12.622,24.554Z" transform="translate(0 -15.97)" fill="none" stroke="#fff" stroke-linecap="round" stroke-linejoin="round" stroke-miterlimit="10" stroke-width="1"/>
    <path id="Path_50" data-name="Path 50" d="M272.414,24.554l-.6,1.011a.238.238,0,0,1-.152.11l-1.147.259a.238.238,0,0,0-.126.389l.775.884a.238.238,0,0,1,.058.179l-.108,1.171a.238.238,0,0,0,.331.24l1.08-.464a.238.238,0,0,1,.188,0l1.08.464a.238.238,0,0,0,.331-.24l-.108-1.171a.238.238,0,0,1,.058-.179l.775-.884a.238.238,0,0,0-.126-.389l-1.147-.259a.238.238,0,0,1-.152-.11l-.6-1.011A.238.238,0,0,0,272.414,24.554Z" transform="translate(-245.336 -15.97)" fill="none" stroke="#fff" stroke-linecap="round" stroke-linejoin="round" stroke-miterlimit="10" stroke-width="1"/>
    <path id="Path_51" data-name="Path 51" d="M279.257,244.8h0a1.184,1.184,0,0,0-1.184-1.184l-4.3-.007a1.022,1.022,0,0,1-1.021-1.022v-3.058a1.837,1.837,0,0,0-.857-1.554.759.759,0,0,0-1.133.43l-1.711,5.841a2.2,2.2,0,0,1-2.108,1.579h-1.17v6.11h1.81a6.985,6.985,0,0,1,2.787.562,6.946,6.946,0,0,0,2.769.576l4.938.018a1.184,1.184,0,0,0,1.184-1.184h0a1.184,1.184,0,1,1,0-2.369h0a1.184,1.184,0,1,1,0-2.369h0a1.184,1.184,0,1,1,0-2.369Zm0,0h0a1.184,1.184,0,0,0-1.184-1.184l-4.3-.007a1.022,1.022,0,0,1-1.021-1.022v-3.058a1.837,1.837,0,0,0-.857-1.554.759.759,0,0,0-1.133.43l-1.711,5.841a2.2,2.2,0,0,1-2.108,1.579h-1.17v6.11h1.81a6.985,6.985,0,0,1,2.787.562,6.946,6.946,0,0,0,2.769.576l4.938.018a1.184,1.184,0,0,0,1.184-1.184h0a1.184,1.184,0,1,1,0-2.369h0a1.184,1.184,0,1,1,0-2.369h0a1.184,1.184,0,1,1,0-2.369Zm-1.184,1.184h-1.406m1.406,2.369h-1.406m1.406,2.369h-1.406" transform="translate(-241.037 -217.195)" fill="none" stroke="#fff" stroke-linecap="round" stroke-linejoin="round" stroke-miterlimit="10" stroke-width="1"/>
    <path id="Path_52" data-name="Path 52" d="M203.016,365.458h-2.834a.47.47,0,0,1-.47-.47v-7.225a.47.47,0,0,1,.47-.47h2.834a.47.47,0,0,1,.47.47v7.225A.47.47,0,0,1,203.016,365.458Z" transform="translate(-178.754 -329.81)" fill="none" stroke="#fff" stroke-linecap="round" stroke-linejoin="round" stroke-miterlimit="10" stroke-width="1"/>
  </g>
</svg>
