<svg xmlns="http://www.w3.org/2000/svg" width="13.836" height="13.835" viewBox="100 5071.165 13.836 13.835"><path d="m112.787 5082.354-1.37 1.37a.444.444 0 0 1-.118.088c-1.935 1.043-5.65-.904-7.357-2.703l-.05-.052c-1.799-1.707-3.746-5.421-2.704-7.357a.436.436 0 0 1 .089-.116l1.37-1.372a.472.472 0 0 1 .355-.147h.01a.47.47 0 0 1 .362.162l1.767 1.908c.186.199.18.506-.013.699l-1.142 1.142c-.321.323-.462.75-.395 1.2.142.949.62 1.84 1.459 2.725.018.018.032.034.05.05.884.84 1.774 1.317 2.723 1.459.453.067.88-.074 1.202-.397l1.14-1.14c.193-.193.5-.2.701-.015l1.908 1.767c.108.1.159.214.162.361a.474.474 0 0 1-.149.368Zm.598-1.389-1.908-1.767a1.4 1.4 0 0 0-1.947.038l-1.142 1.141a.482.482 0 0 1-.43.143c-.762-.115-1.492-.513-2.239-1.222l-.018-.018c-.707-.745-1.105-1.477-1.22-2.236a.487.487 0 0 1 .142-.433l1.142-1.14a1.4 1.4 0 0 0 .036-1.949l-1.766-1.908a1.378 1.378 0 0 0-1.004-.449 1.378 1.378 0 0 0-1.02.412l-1.371 1.37c-.1.1-.177.203-.244.327-.318.59-.446 1.31-.379 2.136.057.714.257 1.495.593 2.318.606 1.486 1.601 2.976 2.661 3.982a.213.213 0 0 1 .02.018c1.006 1.06 2.494 2.057 3.98 2.663.825.335 1.604.534 2.318.593.142.011.28.016.417.016.655 0 1.231-.132 1.72-.395.124-.067.228-.144.328-.244l1.37-1.372c.276-.276.418-.629.412-1.019a1.377 1.377 0 0 0-.451-1.005Z" fill="#8f53c0" fill-rule="evenodd" data-name="call(2)"/></svg>