<svg xmlns="http://www.w3.org/2000/svg" width="20" height="20" viewBox="0 0 20 20" fill="none">
  <g clip-path="url(#clip0_866_18791)">
    <path d="M4.16667 5.8335H5C5.44203 5.8335 5.86595 5.6579 6.17851 5.34534C6.49107 5.03278 6.66667 4.60886 6.66667 4.16683C6.66667 3.94582 6.75446 3.73385 6.91074 3.57757C7.06702 3.42129 7.27899 3.3335 7.5 3.3335H12.5C12.721 3.3335 12.933 3.42129 13.0893 3.57757C13.2455 3.73385 13.3333 3.94582 13.3333 4.16683C13.3333 4.60886 13.5089 5.03278 13.8215 5.34534C14.134 5.6579 14.558 5.8335 15 5.8335H15.8333C16.2754 5.8335 16.6993 6.00909 17.0118 6.32165C17.3244 6.63421 17.5 7.05814 17.5 7.50016V15.0002C17.5 15.4422 17.3244 15.8661 17.0118 16.1787C16.6993 16.4912 16.2754 16.6668 15.8333 16.6668H4.16667C3.72464 16.6668 3.30072 16.4912 2.98816 16.1787C2.67559 15.8661 2.5 15.4422 2.5 15.0002V7.50016C2.5 7.05814 2.67559 6.63421 2.98816 6.32165C3.30072 6.00909 3.72464 5.8335 4.16667 5.8335Z" stroke="white" stroke-width="1.45833" stroke-linecap="round" stroke-linejoin="round"/>
    <path d="M7.5 10.8335C7.5 11.4965 7.76339 12.1324 8.23223 12.6013C8.70107 13.0701 9.33696 13.3335 10 13.3335C10.663 13.3335 11.2989 13.0701 11.7678 12.6013C12.2366 12.1324 12.5 11.4965 12.5 10.8335C12.5 10.1705 12.2366 9.53457 11.7678 9.06573C11.2989 8.59689 10.663 8.3335 10 8.3335C9.33696 8.3335 8.70107 8.59689 8.23223 9.06573C7.76339 9.53457 7.5 10.1705 7.5 10.8335Z" stroke="white" stroke-width="1.45833" stroke-linecap="round" stroke-linejoin="round"/>
  </g>
  <defs>
    <clipPath id="clip0_866_18791">
      <rect width="20" height="20" fill="white"/>
    </clipPath>
  </defs>
</svg>