<svg width="22" height="22" viewBox="0 0 22 22" fill="none" xmlns="http://www.w3.org/2000/svg">
<g clip-path="url(#clip0_755_46928)">
<g clip-path="url(#clip1_755_46928)">
<path d="M13.75 16.0417C13.75 16.6495 13.9914 17.2323 14.4212 17.6621C14.851 18.0919 15.4339 18.3333 16.0417 18.3333C16.6495 18.3333 17.2323 18.0919 17.6621 17.6621C18.0919 17.2323 18.3333 16.6495 18.3333 16.0417C18.3333 15.4339 18.0919 14.851 17.6621 14.4212C17.2323 13.9914 16.6495 13.75 16.0417 13.75C15.4339 13.75 14.851 13.9914 14.4212 14.4212C13.9914 14.851 13.75 15.4339 13.75 16.0417Z" stroke="#6B7280" stroke-width="1.45833" stroke-linecap="round" stroke-linejoin="round"/>
<path d="M5.5 7.33331V17.4166C5.50018 17.6098 5.56133 17.7979 5.67475 17.9542C5.78816 18.1105 5.94804 18.227 6.13157 18.287C6.3151 18.3471 6.51291 18.3476 6.69679 18.2886C6.88066 18.2296 7.0412 18.114 7.1555 17.9584L10.5417 13.2916V13.3421" stroke="#6B7280" stroke-width="1.45833" stroke-linecap="round" stroke-linejoin="round"/>
<path d="M5.49998 7.33335H19.25L16.0416 13.75L9.53331 13.0653C8.86938 12.9955 8.2371 12.7458 7.70466 12.3431C7.17222 11.9403 6.75984 11.3999 6.51198 10.78L3.89673 4.24419C3.82892 4.07392 3.71162 3.92788 3.55999 3.82494C3.40835 3.722 3.22934 3.66688 3.04606 3.66669H1.83331" stroke="#6B7280" stroke-width="1.45833" stroke-linecap="round" stroke-linejoin="round"/>
</g>
</g>
<defs>
<clipPath id="clip0_755_46928">
<rect width="22" height="22" fill="white"/>
</clipPath>
<clipPath id="clip1_755_46928">
<rect width="22" height="22" fill="white"/>
</clipPath>
</defs>
</svg>
