<svg width="16" height="18" viewBox="0 0 16 18" fill="none" xmlns="http://www.w3.org/2000/svg">
<g clip-path="url(#clip0_755_47596)">
<path d="M10 13.125C10 13.6223 10.1756 14.0992 10.4882 14.4508C10.8007 14.8025 11.2246 15 11.6667 15C12.1087 15 12.5326 14.8025 12.8452 14.4508C13.1577 14.0992 13.3333 13.6223 13.3333 13.125C13.3333 12.6277 13.1577 12.1508 12.8452 11.7992C12.5326 11.4475 12.1087 11.25 11.6667 11.25C11.2246 11.25 10.8007 11.4475 10.4882 11.7992C10.1756 12.1508 10 12.6277 10 13.125Z" stroke="white" stroke-width="1.16667" stroke-linecap="round" stroke-linejoin="round"/>
<path d="M4 6V14.25C4.00013 14.408 4.04461 14.5619 4.12709 14.6898C4.20957 14.8177 4.32585 14.913 4.45932 14.9621C4.5928 15.0113 4.73666 15.0117 4.87039 14.9634C5.00411 14.9152 5.12087 14.8206 5.204 14.6932L7.66667 10.875V10.9163" stroke="white" stroke-width="1.16667" stroke-linecap="round" stroke-linejoin="round"/>
<path d="M3.99992 6H13.9999L11.6666 11.25L6.93325 10.6898C6.45039 10.6327 5.99055 10.4283 5.60332 10.0988C5.2161 9.76935 4.91618 9.32717 4.73592 8.82L2.83392 3.4725C2.7846 3.33319 2.69929 3.21371 2.58901 3.12948C2.47873 3.04526 2.34854 3.00015 2.21525 3H1.33325" stroke="white" stroke-width="1.16667" stroke-linecap="round" stroke-linejoin="round"/>
</g>
<defs>
<clipPath id="clip0_755_47596">
<rect width="16" height="18" fill="white"/>
</clipPath>
</defs>
</svg>
