<svg width="40" height="40" viewBox="0 0 40 40" fill="none" xmlns="http://www.w3.org/2000/svg">
<rect width="40" height="40" rx="12" fill="#F9FAFB"/>
<path d="M11 28C11 26.2824 11.6823 24.6352 12.8968 23.4206C14.1114 22.2061 15.7586 21.5238 17.4762 21.5238C19.1938 21.5238 20.841 22.2061 22.0555 23.4206C23.2701 24.6352 23.9524 26.2824 23.9524 28H22.3333C22.3333 26.7118 21.8216 25.4764 20.9107 24.5655C19.9998 23.6546 18.7644 23.1429 17.4762 23.1429C16.188 23.1429 14.9526 23.6546 14.0417 24.5655C13.1308 25.4764 12.619 26.7118 12.619 28H11ZM17.4762 20.7143C14.7926 20.7143 12.619 18.5407 12.619 15.8571C12.619 13.1736 14.7926 11 17.4762 11C20.1598 11 22.3333 13.1736 22.3333 15.8571C22.3333 18.5407 20.1598 20.7143 17.4762 20.7143ZM17.4762 19.0952C19.2652 19.0952 20.7143 17.6462 20.7143 15.8571C20.7143 14.0681 19.2652 12.619 17.4762 12.619C15.6871 12.619 14.2381 14.0681 14.2381 15.8571C14.2381 17.6462 15.6871 19.0952 17.4762 19.0952ZM24.1823 22.0929C25.3199 22.6053 26.2854 23.4353 26.9627 24.4832C27.6399 25.5311 28.0001 26.7523 28 28H26.381C26.3811 27.0642 26.111 26.1482 25.6031 25.3622C25.0951 24.5763 24.371 23.9537 23.5177 23.5695L24.1815 22.0929H24.1823ZM23.6253 12.9534C24.4409 13.2896 25.1383 13.8605 25.6289 14.5937C26.1195 15.3268 26.3813 16.1892 26.381 17.0714C26.3813 18.1824 25.9662 19.2533 25.2173 20.0738C24.4684 20.8943 23.4397 21.4052 22.3333 21.506V19.8764C22.9331 19.7905 23.4896 19.5146 23.9211 19.0891C24.3525 18.6637 24.6362 18.1111 24.7305 17.5126C24.8247 16.914 24.7246 16.301 24.4449 15.7635C24.1651 15.226 23.7204 14.7924 23.176 14.5263L23.6253 12.9534Z" fill="#1DAB87"/>
</svg>
