<svg width="49" height="49" viewBox="0 0 49 49" fill="none" xmlns="http://www.w3.org/2000/svg">
<circle cx="24.5" cy="24.5" r="24.5" fill="#818181"/>
<mask id="mask0_970_8699" style="mask-type:alpha" maskUnits="userSpaceOnUse" x="14" y="14" width="21" height="21">
<rect x="14" y="14" width="21" height="21" fill="#D9D9D9"/>
</mask>
<g mask="url(#mask0_970_8699)">
<path d="M20.1252 32.375C19.644 32.375 19.232 32.2036 18.8893 31.8609C18.5466 31.5182 18.3752 31.1063 18.3752 30.625V19.25H17.5002V17.5H21.8752V16.625H27.1252V17.5H31.5002V19.25H30.6252V30.625C30.6252 31.1063 30.4539 31.5182 30.1112 31.8609C29.7685 32.2036 29.3565 32.375 28.8752 32.375H20.1252ZM28.8752 19.25H20.1252V30.625H28.8752V19.25ZM21.8752 28.875H23.6252V21H21.8752V28.875ZM25.3752 28.875H27.1252V21H25.3752V28.875Z" fill="white"/>
</g>
</svg>
