<svg width="14" height="14" viewBox="0 0 14 14" fill="none" xmlns="http://www.w3.org/2000/svg">
<path d="M1.61836 13.2448C1.36122 13.306 1.13775 13.2418 0.947953 13.052C0.758157 12.8622 0.693871 12.6387 0.755096 12.3816L1.48979 8.87339L5.12652 12.5101L1.61836 13.2448ZM5.12652 12.5101L1.48979 8.87339L9.90203 0.461145C10.1837 0.179513 10.5326 0.0386963 10.949 0.0386963C11.3653 0.0386963 11.7143 0.179513 11.9959 0.461145L13.5388 2.004C13.8204 2.28563 13.9612 2.63461 13.9612 3.05094C13.9612 3.46727 13.8204 3.81625 13.5388 4.09788L5.12652 12.5101ZM10.949 1.48972L3.34489 9.0938L4.90612 10.655L12.5102 3.05094L10.949 1.48972Z" fill="#1C1B1F"/>
</svg>
