<svg xmlns="http://www.w3.org/2000/svg" width="32.52" height="29.414"><path d="M32.52 4.024v-.01a.46.46 0 0 0-.003-.043l-.003-.015a.45.45 0 0 0-.023-.092l-.003-.007L31.196.549A.858.858 0 0 0 30.392 0H28.04a.464.464 0 1 0 0 .929h2.308l1.029 2.632h-9.723L21.043.93h3.592a.464.464 0 1 0 0-.929H5.848a.858.858 0 0 0-.803.549L3.752 3.857l-.002.007a.454.454 0 0 0-.024.092l-.002.015a.482.482 0 0 0-.003.042v6.835a.464.464 0 1 0 .928 0V4.49h9.843v7.058a.704.704 0 0 0 1.169.526l2.46-2.178 2.459 2.178a.704.704 0 0 0 1.168-.526V4.49h9.843v20.828a.605.605 0 0 1-.604.605h-8.514l-.001-.016c0-.042-.002-.083-.006-.125a1.673 1.673 0 0 0 1.967-2.263 1.697 1.697 0 0 0-.053-.113l-.01-.02a1.67 1.67 0 0 0-.06-.104l-.012-.02a1.662 1.662 0 0 0-.07-.1v-.002a1.663 1.663 0 0 0-.077-.094l-.015-.016a1.663 1.663 0 0 0-.081-.085l-.017-.016a1.631 1.631 0 0 0-.091-.08c-.002 0-.003-.002-.004-.003a1.654 1.654 0 0 0-.096-.07c-.006-.005-.011-.01-.018-.013a1.692 1.692 0 0 0-.1-.063l-.009-.005c.196-.17.351-.385.452-.632a1.66 1.66 0 0 0-.007-1.28 1.658 1.658 0 0 0-.91-.898l-7.226-2.947 3.364-1.042a1.526 1.526 0 0 0 1.005-1.902 1.49 1.49 0 0 0-.51-.736 1.563 1.563 0 0 0-1.283-.301l-.006.001c-.026.006-2.605.586-5.299 1.111a141.035 141.035 0 0 1-.621.12l-.077.015a116.438 116.438 0 0 1-.633.118c-3.383.623-4.333.634-4.597.599H7.37a.916.916 0 0 1-.012-.003H7.35l-.005-.002a.36.36 0 0 1-.04-.009l-.075-.03.094-.233a.918.918 0 0 0-.09-.869.918.918 0 0 0-.417-.336l-2.494-1.017a.918.918 0 0 0-.707.004.918.918 0 0 0-.498.503l-3.05 7.48a.926.926 0 0 0 .507 1.204L3.07 22.65a.926.926 0 0 0 1.205-.507l.023-.056.575.235a5.1 5.1 0 0 1 2.05 1.529 6.034 6.034 0 0 0 2.423 1.808l.647.264h-4.74a.605.605 0 0 1-.604-.605v-1.175a.464.464 0 1 0-.928 0v1.175c0 .846.687 1.533 1.533 1.533h7.016l5.982 2.44a1.674 1.674 0 0 0 2.292-1.726c.311.044.634.003.926-.123.298-.128.544-.333.719-.59h8.798c.845 0 1.533-.688 1.533-1.534V4.024ZM16.15.929h3.94l.61 2.632h-5.16L16.15.93ZM14.588 3.56H4.865L5.893.93h9.304l-.61 2.632Zm6.232 7.485-2.234-1.978a.701.701 0 0 0-.932 0l-2.233 1.978V4.49h5.399v6.556ZM3.416 21.79.93 20.775l3.047-7.472 2.486 1.014-3.047 7.472Zm18.552 2.802-.533-.217h-.001l-5.55-2.264a.464.464 0 1 0-.351.86l5.55 2.263a.74.74 0 0 1 .068.032l.017.01.045.027.02.015.038.028.021.019.032.029.02.022.028.03.019.025c.008.01.016.02.023.032l.017.027.02.032.015.03.016.033.012.033c.005.011.01.022.013.033l.01.034.009.034.006.035.006.034.003.035.003.036v.035l-.001.036c0 .012-.003.023-.004.035l-.004.037-.007.034c-.003.012-.005.025-.009.037-.002.011-.006.022-.01.033-.004.012-.007.025-.012.037a.766.766 0 0 0-.012.026c0 .002 0 .004-.002.006a.722.722 0 0 1-.38.376.786.786 0 0 1-.605.007l-.984-.4c-.004-.003-.01-.004-.014-.006l-.013-.006-4.515-1.84a.464.464 0 1 0-.35.86l4.514 1.84.015.005c.004.002.008.005.013.006a.743.743 0 0 1-.56 1.375l-6.066-2.474h-.001L9.697 24.8a5.1 5.1 0 0 1-2.05-1.53 6.013 6.013 0 0 0-2.423-1.807l-.576-.235 1.147-2.813 1.084-2.658.08.033c.075.03.183.074.472.085.36.016.958-.021 2.027-.172.728-.103 1.62-.252 2.662-.443l.077-.015.147-.027.116-.022.134-.025.144-.027.117-.022.179-.034.093-.018.28-.054a215.062 215.062 0 0 0 5.392-1.13l.035-.005a.61.61 0 0 1 .676.406.592.592 0 0 1-.392.743l-4.603 1.425a.464.464 0 0 0-.038.874l8.428 3.437a.737.737 0 0 1 .404.399.737.737 0 0 1 .003.568.737.737 0 0 1-.683.462h-.004l-.068-.003-.02-.003-.051-.007-.032-.008-.039-.01c-.013-.003-.026-.008-.039-.013l-.03-.011-5.552-2.263a.464.464 0 1 0-.35.86l6.73 2.744a.746.746 0 0 1 .403.4.736.736 0 0 1-.2.85l-.013.01a.744.744 0 0 1-.75.114l-.646-.263Z" fill="#fff" fill-rule="evenodd" data-name="Path 45"/></svg>