<svg width="36" height="36" viewBox="0 0 36 36" fill="none" xmlns="http://www.w3.org/2000/svg">
<circle cx="18" cy="18" r="18" fill="white"/>
<mask id="mask0_1059_14065" style="mask-type:alpha" maskUnits="userSpaceOnUse" x="9" y="8" width="19" height="19">
<rect x="9.55103" y="8.81628" width="17.6327" height="17.6327" fill="#D9D9D9"/>
</mask>
<g mask="url(#mask0_1059_14065)">
<path d="M20.5715 24.2449L16.1633 22.702L12.747 24.0245C12.5021 24.1224 12.2755 24.0949 12.0674 23.9418C11.8592 23.7888 11.7551 23.5837 11.7551 23.3265V13.0408C11.7551 12.8816 11.801 12.7408 11.8929 12.6183C11.9847 12.4959 12.1102 12.4041 12.2694 12.3428L16.1633 11.0204L20.5715 12.5632L23.9878 11.2408C24.2327 11.1428 24.4592 11.1704 24.6674 11.3234C24.8755 11.4765 24.9796 11.6816 24.9796 11.9388V22.2245C24.9796 22.3836 24.9337 22.5245 24.8419 22.6469C24.75 22.7694 24.6245 22.8612 24.4653 22.9224L20.5715 24.2449ZM19.8368 22.4449V13.849L16.898 12.8204V21.4163L19.8368 22.4449ZM21.3061 22.4449L23.5102 21.7102V13.0041L21.3061 13.849V22.4449ZM13.2245 22.2612L15.4286 21.4163V12.8204L13.2245 13.5551V22.2612Z" fill="#1C1B1F"/>
</g>
</svg>
