<svg xmlns="http://www.w3.org/2000/svg" width="21" height="18" viewBox="385 35 21 18"><g data-name="Group 141"><path d="M386 35h19a1 1 0 0 1 1 1 1 1 0 0 1-1 1h-19a1 1 0 0 1-1-1 1 1 0 0 1 1-1z" fill="#8f53c0" fill-rule="evenodd" data-name="Rectangle 15"/><path d="M386 43h11a1 1 0 0 1 1 1 1 1 0 0 1-1 1h-11a1 1 0 0 1-1-1 1 1 0 0 1 1-1z" fill="#8f53c0" fill-rule="evenodd" data-name="Rectangle 16"/><path d="M386 51h19a1 1 0 0 1 1 1 1 1 0 0 1-1 1h-19a1 1 0 0 1-1-1 1 1 0 0 1 1-1z" fill="#8f53c0" fill-rule="evenodd" data-name="Rectangle 17"/></g></svg>