<svg width="12" height="12" viewBox="0 0 12 12" fill="none" xmlns="http://www.w3.org/2000/svg">
<g clip-path="url(#clip0_755_47609)">
<path d="M3.48956 1.537C3.93209 1.4616 4.38591 1.48647 4.81755 1.60978C5.24919 1.7331 5.64765 1.95171 5.98356 2.2495L6.00206 2.266L6.01906 2.251C6.33966 1.96965 6.71657 1.7599 7.12465 1.63574C7.53273 1.51158 7.96259 1.47588 8.38556 1.531L8.50856 1.549C9.04172 1.64105 9.54005 1.87558 9.95079 2.22773C10.3615 2.57989 10.6694 3.03657 10.8418 3.54942C11.0142 4.06226 11.0447 4.61218 10.93 5.14093C10.8154 5.66969 10.5599 6.1576 10.1906 6.553L10.1006 6.6455L10.0766 6.666L6.35156 10.3555C6.2656 10.4406 6.15172 10.4916 6.031 10.4992C5.91029 10.5067 5.79094 10.4702 5.69506 10.3965L5.64806 10.3555L1.90156 6.6445C1.50467 6.25833 1.22241 5.76984 1.08604 5.23313C0.949673 4.69643 0.964514 4.13245 1.12892 3.60366C1.29333 3.07486 1.60089 2.6019 2.01754 2.23713C2.4342 1.87237 2.94368 1.63005 3.48956 1.537Z" fill="white"/>
</g>
<defs>
<clipPath id="clip0_755_47609">
<rect width="12" height="12" fill="white"/>
</clipPath>
</defs>
</svg>
