<svg id="Group_85" data-name="Group 85" xmlns="http://www.w3.org/2000/svg" width="16.524" height="14.598" viewBox="0 0 16.524 14.598">
  <path id="Path_19" data-name="Path 19" d="M15.318,31.27a4.162,4.162,0,0,0-6.645.478,6.336,6.336,0,0,0-.411.667,6.33,6.33,0,0,0-.411-.667,4.162,4.162,0,0,0-6.645-.478A5.009,5.009,0,0,0,0,34.6a6.133,6.133,0,0,0,1.689,4.024,37.609,37.609,0,0,0,4.228,3.95c.639.545,1.3,1.108,2,1.724l.021.019a.484.484,0,0,0,.638,0L8.6,44.3c.7-.616,1.365-1.179,2-1.724a37.6,37.6,0,0,0,4.228-3.95A6.134,6.134,0,0,0,16.524,34.6,5.009,5.009,0,0,0,15.318,31.27ZM9.979,41.834c-.551.47-1.119.953-1.717,1.473-.6-.52-1.165-1-1.717-1.473C3.187,38.973.968,37.082.968,34.6a4.042,4.042,0,0,1,.964-2.687A3.231,3.231,0,0,1,4.389,30.8a3.264,3.264,0,0,1,2.671,1.5A5.739,5.739,0,0,1,7.8,33.781a.484.484,0,0,0,.921,0,5.74,5.74,0,0,1,.741-1.474,3.2,3.2,0,0,1,5.129-.4,4.042,4.042,0,0,1,.964,2.687C15.555,37.082,13.337,38.973,9.979,41.834Z" transform="translate(0 -29.836)"/>
</svg>
