<svg width="36" height="36" viewBox="0 0 36 36" fill="none" xmlns="http://www.w3.org/2000/svg">
<circle cx="18" cy="18" r="18" fill="white"/>
<mask id="mask0_1059_14083" style="mask-type:alpha" maskUnits="userSpaceOnUse" x="9" y="8" width="19" height="19">
<rect x="9.55103" y="8.81628" width="17.6327" height="17.6327" fill="#D9D9D9"/>
</mask>
<g mask="url(#mask0_1059_14083)">
<path d="M17.6328 21.3061H19.1021V16.8979H17.6328V21.3061ZM18.3674 15.4285C18.5756 15.4285 18.7501 15.3581 18.8909 15.2173C19.0317 15.0765 19.1021 14.902 19.1021 14.6938C19.1021 14.4856 19.0317 14.3112 18.8909 14.1703C18.7501 14.0295 18.5756 13.9591 18.3674 13.9591C18.1593 13.9591 17.9848 14.0295 17.844 14.1703C17.7032 14.3112 17.6328 14.4856 17.6328 14.6938C17.6328 14.902 17.7032 15.0765 17.844 15.2173C17.9848 15.3581 18.1593 15.4285 18.3674 15.4285ZM18.3674 24.9795C17.3511 24.9795 16.396 24.7867 15.5021 24.401C14.6083 24.0152 13.8307 23.4918 13.1695 22.8305C12.5083 22.1693 11.9848 21.3918 11.5991 20.4979C11.2134 19.604 11.0205 18.6489 11.0205 17.6326C11.0205 16.6163 11.2134 15.6612 11.5991 14.7673C11.9848 13.8734 12.5083 13.0958 13.1695 12.4346C13.8307 11.7734 14.6083 11.2499 15.5021 10.8642C16.396 10.4785 17.3511 10.2856 18.3674 10.2856C19.3838 10.2856 20.3389 10.4785 21.2328 10.8642C22.1266 11.2499 22.9042 11.7734 23.5654 12.4346C24.2266 13.0958 24.7501 13.8734 25.1358 14.7673C25.5215 15.6612 25.7144 16.6163 25.7144 17.6326C25.7144 18.6489 25.5215 19.604 25.1358 20.4979C24.7501 21.3918 24.2266 22.1693 23.5654 22.8305C22.9042 23.4918 22.1266 24.0152 21.2328 24.401C20.3389 24.7867 19.3838 24.9795 18.3674 24.9795ZM18.3674 23.5101C20.0083 23.5101 21.3981 22.9407 22.5368 21.802C23.6756 20.6632 24.245 19.2734 24.245 17.6326C24.245 15.9918 23.6756 14.602 22.5368 13.4632C21.3981 12.3244 20.0083 11.755 18.3674 11.755C16.7266 11.755 15.3368 12.3244 14.1981 13.4632C13.0593 14.602 12.4899 15.9918 12.4899 17.6326C12.4899 19.2734 13.0593 20.6632 14.1981 21.802C15.3368 22.9407 16.7266 23.5101 18.3674 23.5101Z" fill="#1C1B1F"/>
</g>
</svg>
