<svg xmlns="http://www.w3.org/2000/svg" width="14.125" height="11.34" viewBox="0 0 14.125 11.34">
  <path id="mail_1_" data-name="mail(1)" d="M32.112,73.742a2.336,2.336,0,0,1-2.334,2.334H22.122a2.336,2.336,0,0,1-2.334-2.334V68.87a2.317,2.317,0,0,1,.322-1.18l3.736,3.736a2.981,2.981,0,0,0,4.208,0L31.79,67.69a2.317,2.317,0,0,1,.322,1.18v4.872Zm-2.334-7.205H22.122a2.326,2.326,0,0,0-1.414.479l3.773,3.775a2.085,2.085,0,0,0,2.937,0l3.773-3.775A2.326,2.326,0,0,0,29.779,66.536Zm0-.9H22.122a3.238,3.238,0,0,0-3.234,3.234v4.872a3.237,3.237,0,0,0,3.234,3.234h7.656a3.237,3.237,0,0,0,3.234-3.234V68.87A3.238,3.238,0,0,0,29.779,65.636Z" transform="translate(-18.888 -65.636)" fill="#8f53c0" fill-rule="evenodd"/>
</svg>
