<svg width="48" height="48" viewBox="0 0 48 48" fill="none" xmlns="http://www.w3.org/2000/svg">
<rect width="48" height="48" rx="24" fill="#F9FAFB"/>
<g clip-path="url(#clip0_755_46525)">
<path d="M39.6947 28.4407V28.0706H39.5947L39.479 28.3245L39.364 28.0706H39.2637V28.4407H39.3347V28.1618L39.4429 28.4024H39.5165L39.6246 28.1612V28.4407H39.695H39.6947ZM39.0603 28.4407V28.1339H39.1883V28.0715H38.8613V28.1339H38.9893V28.4407H39.0597H39.0603Z" fill="#F79410"/>
<path d="M28.3295 30.6617H19.6758V15.1097H28.3297L28.3295 30.6617Z" fill="#FF5F00"/>
<path d="M20.224 22.8907C20.224 19.736 21.7011 16.9258 24.0013 15.1147C22.2602 13.7418 20.1067 12.9967 17.8894 13C12.4275 13 8 17.4282 8 22.8907C8 28.3533 12.4275 32.7815 17.8894 32.7815C20.1068 32.7848 22.2603 32.0397 24.0014 30.6667C21.7014 28.856 20.224 26.0456 20.224 22.8907Z" fill="#EB001B"/>
<path d="M40.0043 22.8907C40.0043 28.3533 35.5767 32.7815 30.1148 32.7815C27.8972 32.7847 25.7434 32.0396 24.002 30.6667C26.3028 28.8557 27.7799 26.0456 27.7799 22.8907C27.7799 19.7359 26.3028 16.9258 24.002 15.1147C25.7434 13.7419 27.8971 12.9968 30.1146 13C35.5766 13 40.0041 17.4282 40.0041 22.8907" fill="#F79E1B"/>
</g>
<defs>
<clipPath id="clip0_755_46525">
<rect width="32" height="24" fill="white" transform="translate(8 11)"/>
</clipPath>
</defs>
</svg>
