<svg width="20" height="20" viewBox="0 0 20 20" fill="none" xmlns="http://www.w3.org/2000/svg">
<g clip-path="url(#clip0_710_25846)">
<path d="M3.33333 9.99984C3.33333 10.2209 3.42113 10.4328 3.57741 10.5891C3.73369 10.7454 3.94565 10.8332 4.16666 10.8332C4.38768 10.8332 4.59964 10.7454 4.75592 10.5891C4.9122 10.4328 4.99999 10.2209 4.99999 9.99984C4.99999 9.77882 4.9122 9.56686 4.75592 9.41058C4.59964 9.2543 4.38768 9.1665 4.16666 9.1665C3.94565 9.1665 3.73369 9.2543 3.57741 9.41058C3.42113 9.56686 3.33333 9.77882 3.33333 9.99984Z" stroke="currentColor" stroke-width="1.45833" stroke-linecap="round" stroke-linejoin="round"/>
<path d="M9.16667 9.99984C9.16667 10.2209 9.25447 10.4328 9.41075 10.5891C9.56703 10.7454 9.77899 10.8332 10 10.8332C10.221 10.8332 10.433 10.7454 10.5893 10.5891C10.7455 10.4328 10.8333 10.2209 10.8333 9.99984C10.8333 9.77882 10.7455 9.56686 10.5893 9.41058C10.433 9.2543 10.221 9.1665 10 9.1665C9.77899 9.1665 9.56703 9.2543 9.41075 9.41058C9.25447 9.56686 9.16667 9.77882 9.16667 9.99984Z" stroke="currentColor" stroke-width="1.45833" stroke-linecap="round" stroke-linejoin="round"/>
<path d="M15 9.99984C15 10.2209 15.0878 10.4328 15.2441 10.5891C15.4004 10.7454 15.6123 10.8332 15.8333 10.8332C16.0543 10.8332 16.2663 10.7454 16.4226 10.5891C16.5789 10.4328 16.6667 10.2209 16.6667 9.99984C16.6667 9.77882 16.5789 9.56686 16.4226 9.41058C16.2663 9.2543 16.0543 9.1665 15.8333 9.1665C15.6123 9.1665 15.4004 9.2543 15.2441 9.41058C15.0878 9.56686 15 9.77882 15 9.99984Z" stroke="currentColor" stroke-width="1.45833" stroke-linecap="round" stroke-linejoin="round"/>
</g>
<defs>
<clipPath id="clip0_710_25846">
<rect width="20" height="20" fill="currentColor"/>
</clipPath>
</defs>
</svg>
