<svg width="22" height="22" viewBox="0 0 22 22" fill="none" xmlns="http://www.w3.org/2000/svg">
<path d="M8.70834 12.6044C8.70834 13.4935 9.39586 14.2085 10.2392 14.2085H11.9625C12.6958 14.2085 13.2917 13.5852 13.2917 12.806C13.2917 11.9719 12.925 11.6694 12.3842 11.4769L9.62501 10.5144C9.08418 10.3219 8.71752 10.0285 8.71752 9.18521C8.71752 8.41521 9.31334 7.78271 10.0467 7.78271H11.77C12.6133 7.78271 13.3009 8.49771 13.3009 9.38688" stroke="#1D3A70" stroke-width="1.5" stroke-linecap="round" stroke-linejoin="round"/>
<path d="M11 6.875V15.125" stroke="#1D3A70" stroke-width="1.5" stroke-linecap="round" stroke-linejoin="round"/>
<path d="M20.1667 11.0002C20.1667 16.0602 16.06 20.1668 11 20.1668C5.94001 20.1668 1.83334 16.0602 1.83334 11.0002C1.83334 5.94016 5.94001 1.8335 11 1.8335" stroke="#1D3A70" stroke-width="1.5" stroke-linecap="round" stroke-linejoin="round"/>
<path d="M20.1667 5.50016V1.8335H16.5" stroke="#1D3A70" stroke-width="1.5" stroke-linecap="round" stroke-linejoin="round"/>
<path d="M15.5833 6.41683L20.1667 1.8335" stroke="#1D3A70" stroke-width="1.5" stroke-linecap="round" stroke-linejoin="round"/>
</svg>
