<svg width="259" height="92" viewBox="0 0 259 92" fill="none" xmlns="http://www.w3.org/2000/svg">
<g clip-path="url(#clip0_755_46676)">
<path fill-rule="evenodd" clip-rule="evenodd" d="M206.846 55.6106C206.697 55.2841 206.563 54.9577 206.444 54.6271C206.266 54.1313 206.155 53.6133 206.004 53.1102C205.94 52.8968 205.764 52.3428 205.753 52.2594C205.659 51.5311 206.197 51.2715 206.358 51.2078C206.435 51.1747 207.235 50.8617 207.658 51.7284C208.176 52.7879 208.547 53.8948 208.766 55.0181C209.197 55.9072 209.755 56.7582 210.388 57.4944C212.908 60.4222 216.081 59.9222 219.415 58.9959C219.927 58.8504 220.462 59.1394 220.626 59.6432C220.79 60.1508 220.527 60.699 220.028 60.8822C218.208 61.5634 215.295 63.9499 214.567 65.8168C214.414 66.2076 214.486 67.0326 214.508 67.8542C214.538 68.995 214.516 70.1374 214.292 70.675C214.259 70.758 213.823 71.6326 213.664 71.7863C213.281 72.1525 212.884 72.1065 212.645 72.0306C212.406 71.9546 212.106 71.7591 211.9 71.3573C211.684 70.9375 211.52 70.0013 211.453 69.8094C211.208 69.1133 210.692 67.7568 210.081 66.6358C209.751 66.0323 209.425 65.4815 209.07 65.2596C207.755 64.4383 206.166 65.0371 204.839 65.5861C204.686 65.6476 204.535 65.713 204.382 65.7744C203.867 66.0896 203.305 66.3718 202.697 66.6131C201.778 66.9787 201.389 66.1484 201.365 66.093C201.313 65.971 201.072 65.3355 201.717 64.8826C201.788 64.8348 202.33 64.5538 202.538 64.4445C202.828 64.2926 203.126 64.1551 203.426 64.0212C206.395 62.1469 207.396 58.848 206.846 55.6106ZM208.893 58.8051C210.793 61.0055 212.976 61.7301 215.323 61.694L215.323 61.6942C214.142 62.7805 213.134 64.0142 212.714 65.0944C212.554 65.5036 212.508 66.2531 212.507 67.081C212.202 66.3927 211.845 65.6689 211.469 65.0696C211.041 64.3856 210.567 63.8495 210.125 63.5728C209.272 63.0397 208.333 62.8669 207.386 62.9108C208.203 61.6748 208.698 60.2739 208.893 58.8051Z" fill="#FFB9AA"/>
</g>
<g clip-path="url(#clip1_755_46676)">
<path fill-rule="evenodd" clip-rule="evenodd" d="M182.779 9.97572C182.705 9.81362 182.639 9.65155 182.58 9.48743C182.491 9.24126 182.436 8.98407 182.361 8.73428C182.329 8.62833 182.242 8.35326 182.236 8.31182C182.19 7.95023 182.457 7.82133 182.537 7.78971C182.575 7.7733 182.972 7.61786 183.182 8.04818C183.439 8.57423 183.624 9.12381 183.732 9.68153C183.946 10.123 184.224 10.5455 184.538 10.911C185.789 12.3647 187.364 12.1164 189.02 11.6565C189.274 11.5843 189.539 11.7278 189.621 11.9779C189.703 12.2299 189.572 12.5021 189.324 12.5931C188.42 12.9313 186.974 14.1162 186.612 15.0431C186.537 15.2371 186.572 15.6467 186.584 16.0547C186.598 16.6211 186.587 17.1883 186.476 17.4552C186.46 17.4964 186.243 17.9306 186.164 18.007C185.974 18.1887 185.777 18.1659 185.658 18.1282C185.54 18.0905 185.391 17.9934 185.288 17.794C185.181 17.5855 185.1 17.1207 185.066 17.0254C184.945 16.6798 184.689 16.0063 184.385 15.4497C184.222 15.1501 184.06 14.8766 183.883 14.7664C183.231 14.3586 182.441 14.656 181.783 14.9286C181.707 14.9591 181.632 14.9916 181.556 15.0221C181.3 15.1785 181.021 15.3186 180.719 15.4385C180.263 15.62 180.07 15.2077 180.058 15.1802C180.032 15.1196 179.913 14.8041 180.233 14.5793C180.268 14.5556 180.537 14.416 180.64 14.3617C180.784 14.2863 180.932 14.2181 181.081 14.1516C182.555 13.221 183.052 11.5831 182.779 9.97572ZM183.796 11.5618C184.739 12.6543 185.823 13.014 186.988 12.9961L186.988 12.9962C186.402 13.5356 185.901 14.1481 185.693 14.6844C185.613 14.8876 185.59 15.2597 185.59 15.6708C185.438 15.329 185.261 14.9697 185.075 14.6721C184.862 14.3325 184.627 14.0663 184.407 13.9289C183.983 13.6643 183.518 13.5785 183.047 13.6002C183.453 12.9866 183.699 12.291 183.796 11.5618Z" fill="#AB92F0"/>
</g>
<g clip-path="url(#clip2_755_46676)">
<path fill-rule="evenodd" clip-rule="evenodd" d="M68.1748 68.3374C68.1103 68.1962 68.0524 68.0551 68.0011 67.9122C67.9241 67.6979 67.8762 67.474 67.811 67.2565C67.7832 67.1643 67.7072 66.9248 67.7023 66.8887C67.6615 66.5739 67.8944 66.4617 67.9639 66.4342C67.9973 66.4199 68.343 66.2845 68.5258 66.6592C68.7496 67.1172 68.9102 67.5957 69.0045 68.0812C69.191 68.4656 69.4323 68.8334 69.7061 69.1516C70.7952 70.4172 72.1666 70.2011 73.6079 69.8007C73.8292 69.7378 74.0604 69.8627 74.1312 70.0805C74.2025 70.2999 74.0887 70.5369 73.8728 70.6161C73.0861 70.9105 71.8268 71.9421 71.5121 72.7491C71.4463 72.9181 71.4772 73.2747 71.487 73.6298C71.4998 74.123 71.4903 74.6168 71.3936 74.8492C71.3794 74.885 71.1907 75.2631 71.122 75.3295C70.9565 75.4878 70.7848 75.4679 70.6815 75.4351C70.5782 75.4023 70.4485 75.3178 70.3593 75.1441C70.266 74.9626 70.1953 74.5579 70.1661 74.475C70.0602 74.1741 69.8372 73.5877 69.573 73.1032C69.4307 72.8423 69.2896 72.6042 69.1361 72.5082C68.5679 72.1532 67.8808 72.4121 67.3073 72.6494C67.2413 72.676 67.1757 72.7043 67.1099 72.7308C66.887 72.8671 66.6444 72.989 66.3813 73.0933C65.9842 73.2514 65.8157 72.8924 65.8054 72.8685C65.7831 72.8158 65.679 72.5411 65.9578 72.3453C65.9884 72.3247 66.2225 72.2032 66.3126 72.1559C66.4381 72.0903 66.5668 72.0308 66.6966 71.9729C67.9798 71.1628 68.4126 69.7368 68.1748 68.3374ZM69.0598 69.7182C69.881 70.6694 70.8244 70.9826 71.8391 70.967L71.8389 70.967C71.3286 71.4366 70.8928 71.9699 70.7113 72.4368C70.6423 72.6138 70.6223 72.9377 70.6219 73.2956C70.49 72.9981 70.3357 72.6852 70.1732 72.4262C69.9881 72.1305 69.7834 71.8987 69.5922 71.7791C69.2232 71.5487 68.8177 71.474 68.4082 71.4929C68.7613 70.9587 68.9753 70.3531 69.0598 69.7182Z" fill="#FFCEC4"/>
</g>
<g clip-path="url(#clip3_755_46676)">
<path fill-rule="evenodd" clip-rule="evenodd" d="M43.1748 34.3374C43.1103 34.1962 43.0524 34.0551 43.0011 33.9122C42.9241 33.6979 42.8762 33.474 42.811 33.2565C42.7832 33.1643 42.7072 32.9248 42.7023 32.8887C42.6615 32.5739 42.8944 32.4617 42.9639 32.4342C42.9973 32.4199 43.343 32.2845 43.5258 32.6592C43.7496 33.1172 43.9102 33.5957 44.0045 34.0812C44.191 34.4656 44.4323 34.8334 44.7061 35.1516C45.7952 36.4172 47.1666 36.2011 48.6079 35.8007C48.8292 35.7378 49.0604 35.8627 49.1312 36.0805C49.2025 36.2999 49.0887 36.5369 48.8728 36.6161C48.0861 36.9105 46.8268 37.9421 46.5121 38.7491C46.4463 38.9181 46.4772 39.2747 46.487 39.6298C46.4998 40.123 46.4903 40.6168 46.3936 40.8492C46.3794 40.885 46.1907 41.2631 46.122 41.3295C45.9565 41.4878 45.7848 41.4679 45.6815 41.4351C45.5782 41.4023 45.4485 41.3178 45.3593 41.1441C45.266 40.9626 45.1953 40.5579 45.1661 40.475C45.0602 40.1741 44.8372 39.5877 44.573 39.1032C44.4307 38.8423 44.2896 38.6042 44.1361 38.5082C43.5679 38.1532 42.8808 38.4121 42.3073 38.6494C42.2413 38.676 42.1757 38.7043 42.1099 38.7308C41.887 38.8671 41.6444 38.989 41.3813 39.0933C40.9842 39.2514 40.8157 38.8924 40.8054 38.8685C40.7831 38.8158 40.679 38.5411 40.9578 38.3453C40.9884 38.3247 41.2225 38.2032 41.3126 38.1559C41.4381 38.0903 41.5668 38.0308 41.6966 37.9729C42.9798 37.1628 43.4126 35.7368 43.1748 34.3374ZM44.0598 35.7182C44.881 36.6694 45.8244 36.9826 46.8391 36.967L46.8389 36.967C46.3286 37.4366 45.8928 37.9699 45.7113 38.4368C45.6423 38.6138 45.6223 38.9377 45.6219 39.2956C45.49 38.9981 45.3357 38.6852 45.1732 38.4262C44.9881 38.1305 44.7834 37.8987 44.5922 37.7791C44.2232 37.5487 43.8177 37.474 43.4082 37.4929C43.7613 36.9587 43.9753 36.3531 44.0598 35.7182Z" fill="#4ADE80"/>
</g>
<g clip-path="url(#clip4_755_46676)">
<path fill-rule="evenodd" clip-rule="evenodd" d="M4.17482 83.3374C4.11031 83.1962 4.05239 83.0551 4.0011 82.9122C3.9241 82.6979 3.8762 82.474 3.81099 82.2565C3.78325 82.1643 3.70715 81.9248 3.70229 81.8887C3.66155 81.5739 3.89437 81.4617 3.96389 81.4342C3.99726 81.4199 4.34297 81.2845 4.52577 81.6592C4.74959 82.1172 4.91019 82.5957 5.00452 83.0812C5.19098 83.4656 5.4323 83.8334 5.70607 84.1516C6.79525 85.4172 8.16661 85.2011 9.60786 84.8007C9.82917 84.7378 10.0604 84.8627 10.1312 85.0805C10.2025 85.2999 10.0887 85.5369 9.87281 85.6161C9.08613 85.9105 7.82681 86.9421 7.51209 87.7491C7.44629 87.9181 7.47723 88.2747 7.48696 88.6298C7.49984 89.123 7.4903 89.6168 7.39362 89.8492C7.37937 89.885 7.19072 90.2631 7.12202 90.3295C6.95653 90.4878 6.78479 90.4679 6.68148 90.4351C6.57817 90.4023 6.44854 90.3178 6.3593 90.1441C6.26599 89.9626 6.19529 89.5579 6.16612 89.475C6.06022 89.1741 5.83725 88.5877 5.57303 88.1032C5.43068 87.8423 5.28963 87.6042 5.13613 87.5082C4.5679 87.1532 3.88079 87.4121 3.30734 87.6494C3.24131 87.676 3.17573 87.7043 3.10986 87.7308C2.88703 87.8671 2.64435 87.989 2.38128 88.0933C1.98416 88.2514 1.81573 87.8924 1.8054 87.8685C1.78308 87.8158 1.67903 87.5411 1.95783 87.3453C1.98843 87.3247 2.22251 87.2032 2.31255 87.1559C2.43806 87.0903 2.56685 87.0308 2.69658 86.9729C3.9798 86.1628 4.41256 84.7368 4.17482 83.3374ZM5.05975 84.7182C5.88099 85.6694 6.82444 85.9826 7.8391 85.967L7.83894 85.967C7.32862 86.4366 6.89285 86.9699 6.71128 87.4368C6.64227 87.6138 6.62228 87.9377 6.62188 88.2956C6.49001 87.9981 6.3357 87.6852 6.1732 87.4262C5.98806 87.1305 5.78339 86.8987 5.59221 86.7791C5.22325 86.5487 4.8177 86.474 4.40823 86.4929C4.76133 85.9587 4.97535 85.3531 5.05975 84.7182Z" fill="white"/>
</g>
<g clip-path="url(#clip5_755_46676)">
<path fill-rule="evenodd" clip-rule="evenodd" d="M251.674 76.937C251.617 76.8128 251.566 76.6887 251.521 76.5629C251.453 76.3743 251.411 76.1773 251.354 75.9859C251.329 75.9047 251.262 75.694 251.258 75.6622C251.222 75.3852 251.427 75.2864 251.488 75.2622C251.518 75.2497 251.822 75.1306 251.983 75.4602C252.18 75.8633 252.321 76.2843 252.404 76.7116C252.568 77.0498 252.78 77.3736 253.021 77.6536C253.98 78.7673 255.187 78.5771 256.455 78.2247C256.65 78.1694 256.853 78.2793 256.915 78.471C256.978 78.6641 256.878 78.8726 256.688 78.9423C255.996 79.2014 254.888 80.1092 254.611 80.8193C254.553 80.968 254.58 81.2818 254.588 81.5943C254.6 82.0283 254.591 82.4629 254.506 82.6674C254.494 82.6989 254.328 83.0316 254.267 83.0901C254.122 83.2294 253.971 83.2119 253.88 83.183C253.789 83.1541 253.675 83.0797 253.596 82.9269C253.514 82.7672 253.452 82.4111 253.426 82.3381C253.333 82.0733 253.137 81.5573 252.904 81.1309C252.779 80.9013 252.655 80.6918 252.52 80.6074C252.02 80.295 251.415 80.5228 250.91 80.7316C250.852 80.755 250.795 80.7799 250.737 80.8032C250.541 80.9231 250.327 81.0305 250.096 81.1222C249.746 81.2613 249.598 80.9455 249.589 80.9244C249.569 80.878 249.478 80.6362 249.723 80.464C249.75 80.4458 249.956 80.3389 250.035 80.2973C250.145 80.2395 250.259 80.1873 250.373 80.1363C251.502 79.4234 251.883 78.1685 251.674 76.937ZM252.453 78.1522C253.175 78.9892 254.005 79.2648 254.898 79.2511L254.898 79.2511C254.449 79.6644 254.066 80.1336 253.906 80.5445C253.845 80.7002 253.828 80.9853 253.827 81.3002C253.711 81.0384 253.575 80.7631 253.432 80.5351C253.269 80.2749 253.089 80.071 252.921 79.9657C252.596 79.763 252.24 79.6972 251.879 79.7139C252.19 79.2438 252.378 78.7109 252.453 78.1522Z" fill="white"/>
</g>
<circle cx="100" cy="36" r="2.5" stroke="white"/>
<circle opacity="0.5" cx="119" cy="2" r="1.5" stroke="white"/>
<defs>
<clipPath id="clip0_755_46676">
<rect width="22.2734" height="22.2734" fill="white" transform="translate(197.188 53.6543) rotate(-15)"/>
</clipPath>
<clipPath id="clip1_755_46676">
<rect width="11.0587" height="11.0587" fill="white" transform="translate(177.984 9.00439) rotate(-15)"/>
</clipPath>
<clipPath id="clip2_755_46676">
<rect width="9.62799" height="9.62799" fill="white" transform="translate(64 67.4917) rotate(-15)"/>
</clipPath>
<clipPath id="clip3_755_46676">
<rect width="9.62799" height="9.62799" fill="white" transform="translate(39 33.4917) rotate(-15)"/>
</clipPath>
<clipPath id="clip4_755_46676">
<rect width="9.62799" height="9.62799" fill="white" transform="translate(0 82.4917) rotate(-15)"/>
</clipPath>
<clipPath id="clip5_755_46676">
<rect width="8.47256" height="8.47256" fill="white" transform="translate(248 76.1929) rotate(-15)"/>
</clipPath>
</defs>
</svg>
