<svg width="48" height="48" viewBox="0 0 48 48" fill="none" xmlns="http://www.w3.org/2000/svg">
<rect width="48" height="48" rx="24" fill="#F9FAFB"/>
<path d="M19.7956 35.2543L20.2128 32.6045L19.2835 32.583H14.8463L17.93 13.0307C17.9391 12.9709 17.9695 12.9165 18.0155 12.8772C18.0614 12.838 18.12 12.8166 18.1804 12.8169H25.6622C28.146 12.8169 29.8601 13.3338 30.7551 14.3539C31.1746 14.8325 31.4418 15.3326 31.5711 15.883C31.7067 16.4605 31.709 17.1504 31.5766 17.9919L31.5671 18.0533V18.5925L31.9866 18.8302C32.3069 18.9925 32.5948 19.212 32.8361 19.4779C33.195 19.8871 33.4271 20.4072 33.5253 21.0237C33.6266 21.6578 33.5931 22.4124 33.4271 23.2667C33.2357 24.2494 32.9262 25.1052 32.5083 25.8055C32.1395 26.4329 31.6437 26.9763 31.0526 27.4008C30.4974 27.7948 29.8378 28.0939 29.092 28.2854C28.3694 28.4736 27.5454 28.5685 26.6417 28.5685H26.0594C25.6431 28.5685 25.2387 28.7185 24.9212 28.9873C24.6042 29.259 24.3939 29.6343 24.3278 30.0465L24.2839 30.285L23.5469 34.9552L23.5134 35.1267C23.5046 35.1809 23.4895 35.208 23.4671 35.2264C23.4455 35.2441 23.4185 35.2539 23.3905 35.2543H19.7956Z" fill="#253B80"/>
<path d="M32.3837 18.1158C32.3614 18.2586 32.3358 18.4046 32.3071 18.5545C31.3205 23.6203 27.9449 25.3703 23.6337 25.3703H21.4386C20.9114 25.3703 20.4671 25.7532 20.3849 26.2732L19.2611 33.4009L18.9428 35.4213C18.9301 35.5014 18.935 35.5833 18.957 35.6614C18.979 35.7395 19.0177 35.8119 19.0704 35.8736C19.1231 35.9353 19.1885 35.9849 19.2622 36.0189C19.3359 36.0529 19.416 36.0705 19.4972 36.0705H23.3904C23.8514 36.0705 24.2431 35.7355 24.3157 35.2809L24.3539 35.0831L25.087 30.4313L25.134 30.176C25.2058 29.7198 25.5982 29.3848 26.0593 29.3848H26.6416C30.4136 29.3848 33.3664 27.8533 34.2294 23.4217C34.59 21.5704 34.4033 20.0246 33.4493 18.9374C33.147 18.6011 32.7859 18.3227 32.3837 18.1158Z" fill="#179BD7"/>
<path d="M31.3516 17.7039C31.0366 17.6128 30.7161 17.5417 30.3921 17.491C29.7519 17.3926 29.1048 17.3453 28.457 17.3498H22.5929C22.3697 17.3496 22.1538 17.4293 21.9843 17.5744C21.8147 17.7195 21.7027 17.9205 21.6684 18.141L20.4209 26.0424L20.385 26.2729C20.4239 26.0213 20.5515 25.792 20.7447 25.6264C20.938 25.4608 21.1842 25.3698 21.4387 25.37H23.6338C27.945 25.37 31.3205 23.6192 32.3072 18.5542C32.3367 18.4042 32.3615 18.2583 32.3838 18.1155C32.1234 17.979 31.8521 17.8645 31.5726 17.7733C31.4993 17.749 31.4257 17.7259 31.3516 17.7039Z" fill="#222D65"/>
<path d="M21.6684 18.141C21.7023 17.9204 21.8143 17.7193 21.984 17.5743C22.1536 17.4292 22.3696 17.3498 22.5928 17.3505H28.457C29.1517 17.3505 29.8002 17.396 30.3921 17.4917C30.7926 17.5546 31.1875 17.6488 31.5733 17.7733C31.8645 17.8698 32.1349 17.9838 32.3845 18.1154C32.6781 16.2434 32.3821 14.9688 31.37 13.8146C30.2541 12.544 28.24 12 25.6629 12H18.1811C17.6547 12 17.2056 12.3829 17.1243 12.9037L14.0079 32.6571C13.9934 32.7488 13.9989 32.8425 14.0241 32.9319C14.0493 33.0213 14.0935 33.1041 14.1538 33.1748C14.214 33.2454 14.2889 33.3022 14.3732 33.3411C14.4574 33.3801 14.5492 33.4003 14.642 33.4005H19.2611L20.4209 26.0423L21.6684 18.141Z" fill="#253B80"/>
</svg>
