<svg xmlns="http://www.w3.org/2000/svg" width="29.423" height="29.423" viewBox="546.9 4791.9 29.423 29.423"><g data-name="return"><path d="M562.055 4798.969a.417.417 0 0 0-.417 0l-6.358 3.67a.417.417 0 0 0-.208.362v7.341c0 .149.08.287.208.361l6.358 3.67a.417.417 0 0 0 .417 0l6.358-3.67a.417.417 0 0 0 .208-.361v-7.341a.417.417 0 0 0-.208-.361l-6.358-3.671Zm-.209.842 5.524 3.19-5.524 3.189-5.524-3.19 5.524-3.189Zm-5.94 3.912 5.524 3.189v6.379l-5.524-3.19v-6.378Zm6.357 9.568v-6.38l5.524-3.189v6.38l-5.524 3.189Zm-14.332-4.929a.417.417 0 1 1-.828.098 14.714 14.714 0 0 1 22.054-14.44 14.8 14.8 0 0 1 4.586 4.225l-.034-4.803a.417.417 0 1 1 .834-.006l.043 6.257a.417.417 0 0 1-.416.42h-.012l-5.813-.168a.417.417 0 1 1 .024-.833l5.05.145a13.937 13.937 0 0 0-11.708-6.424c-7.652 0-13.877 6.226-13.877 13.878 0 .551.032 1.102.097 1.65Zm28.492-1.651a14.716 14.716 0 0 1-21.494 13.058 14.84 14.84 0 0 1-4.465-3.578l-.184 4.284a.417.417 0 0 1-.416.4l-.019-.001a.417.417 0 0 1-.398-.434l.232-5.414a.416.416 0 0 1 .419-.399l5.985.03a.417.417 0 0 1-.002.833h-.002l-5.135-.025a13.934 13.934 0 0 0 10.767 5.123c7.652 0 13.878-6.225 13.878-13.877a.417.417 0 1 1 .834 0Z" fill="#fff" fill-rule="evenodd"/><path d="M562.055 4798.969a.417.417 0 0 0-.417 0l-6.358 3.67a.417.417 0 0 0-.208.362v7.341c0 .149.08.287.208.361l6.358 3.67a.417.417 0 0 0 .417 0l6.358-3.67a.417.417 0 0 0 .208-.361v-7.341a.417.417 0 0 0-.208-.361l-6.358-3.671Zm-.209.842 5.524 3.19-5.524 3.189-5.524-3.19 5.524-3.189Zm-5.94 3.912 5.524 3.189v6.379l-5.524-3.19v-6.378Zm6.357 9.568v-6.38l5.524-3.189v6.38l-5.524 3.189Zm-14.332-4.929a.417.417 0 1 1-.828.098 14.714 14.714 0 0 1 22.054-14.44 14.8 14.8 0 0 1 4.586 4.225l-.034-4.803a.417.417 0 1 1 .834-.006l.043 6.257a.417.417 0 0 1-.416.42h-.012l-5.813-.168a.417.417 0 1 1 .024-.833l5.05.145a13.937 13.937 0 0 0-11.708-6.424c-7.652 0-13.877 6.226-13.877 13.878 0 .551.032 1.102.097 1.65Zm28.492-1.651a14.716 14.716 0 0 1-21.494 13.058 14.84 14.84 0 0 1-4.465-3.578l-.184 4.284a.417.417 0 0 1-.416.4l-.019-.001a.417.417 0 0 1-.398-.434l.232-5.414a.416.416 0 0 1 .419-.399l5.985.03a.417.417 0 0 1-.002.833h-.002l-5.135-.025a13.934 13.934 0 0 0 10.767 5.123c7.652 0 13.878-6.225 13.878-13.877a.417.417 0 1 1 .834 0Z" stroke-linejoin="round" stroke-linecap="round" stroke-width=".2" stroke="#fff" fill="transparent"/></g></svg>