<svg xmlns="http://www.w3.org/2000/svg" width="170.43" height="47.208" viewBox="22 20 170.43 47.208"><g data-name="Saloof"><g data-name="Group 1"><path d="M28.172 27.358c-1.224 1.33-2.34 2.766-3.245 4.31l37.246 28.467c1.277-1.277 2.341-2.714 3.299-4.257l-37.3-28.52Z" fill="#a76fd6" fill-rule="evenodd" data-name="Path 1"/><path d="M59.832 62.263 23.543 34.54A21.703 21.703 0 0 0 22 40.128l32.883 25.115a26.013 26.013 0 0 0 4.949-2.98Z" fill="#9d62cc" fill-rule="evenodd" data-name="Path 2"/><path d="M49.35 28.9c2.713-1.702 5.853-2.82 9.205-3.298.585-.107 1.224-.107 1.809-.16-4.842-4.044-11.334-6.172-18.144-5.214-1.118.16-2.235.372-3.3.691l10.43 7.982Z" fill="#af83e4" fill-rule="evenodd" data-name="Path 3"/><path d="M40.783 58.432c-2.607 1.596-5.64 2.66-8.833 3.14-.585.106-1.117.106-1.703.159a23.532 23.532 0 0 0 18.251 5.268c.958-.107 1.916-.32 2.82-.533l-10.535-8.034Z" fill="#8f53c0" fill-rule="evenodd" data-name="Path 4"/><path d="M35.409 22.196c-1.756.798-3.406 1.863-4.896 3.033l36.449 27.829c.745-1.756 1.33-3.619 1.65-5.534L35.408 22.196Z" fill="#af7fe1" fill-rule="evenodd" data-name="Path 5"/></g><g data-name="Group 3"><g data-name="Group 2"><path d="M85.16 44.917c-.905-.32-1.703-.745-2.448-1.118-.692-.425-1.33-.904-1.81-1.49a6.576 6.576 0 0 1-1.17-2.075c-.266-.798-.426-1.756-.426-2.873 0-1.33.213-2.554.692-3.565.48-1.011 1.118-1.916 1.969-2.607.851-.692 1.862-1.224 3.086-1.597 1.17-.372 2.554-.532 4.044-.532 1.33 0 2.607.107 3.778.373 1.17.213 2.448.585 3.725 1.01-.16 1.544-.586 3.034-1.277 4.523-.373-.16-.799-.319-1.224-.478a9.708 9.708 0 0 0-1.33-.373 12.464 12.464 0 0 0-1.597-.266 20.923 20.923 0 0 0-1.969-.106c-.425 0-.904.053-1.383.106a3.296 3.296 0 0 0-1.277.426 2.254 2.254 0 0 0-.905.958 3.534 3.534 0 0 0-.372 1.596c0 .532.106.958.266 1.33.16.373.426.639.745.905.32.266.692.479 1.064.638.373.16.798.32 1.17.479l2.395.905a26.94 26.94 0 0 1 2.767 1.223c.798.426 1.543.958 2.075 1.597.585.638 1.011 1.383 1.33 2.288.32.904.48 1.968.48 3.299 0 1.33-.267 2.607-.746 3.724-.479 1.118-1.223 2.075-2.128 2.874-.905.798-2.075 1.436-3.459 1.862-1.383.426-2.926.692-4.735.692-.852 0-1.65-.054-2.341-.054-.692-.053-1.33-.16-1.97-.266a11.975 11.975 0 0 1-1.862-.478c-.585-.16-1.223-.426-1.915-.692.053-.745.213-1.596.426-2.395.212-.851.478-1.702.745-2.554 1.117.426 2.181.798 3.139 1.011.958.213 2.022.32 3.14.32 1.649 0 2.979-.32 3.937-.958.958-.639 1.436-1.596 1.436-2.874 0-.638-.106-1.17-.319-1.596a3.417 3.417 0 0 0-.851-1.064c-.373-.266-.745-.532-1.224-.745-.426-.213-.905-.372-1.383-.585l-2.288-.798Z" fill="#8f53c0" fill-rule="evenodd" data-name="Path 6"/><path d="M112.137 44.65c0-.638-.107-1.17-.32-1.542a2.916 2.916 0 0 0-.851-.958c-.372-.213-.851-.373-1.383-.48a18.418 18.418 0 0 0-1.81-.106c-1.436 0-2.98.267-4.576.852a12.236 12.236 0 0 1-.85-1.969 8.422 8.422 0 0 1-.267-2.182c1.17-.372 2.341-.691 3.512-.85 1.17-.16 2.235-.267 3.246-.267 2.767 0 4.895.639 6.491 1.969 1.543 1.33 2.341 3.458 2.341 6.385v11.972c-.904.266-2.075.585-3.405.851-1.33.266-2.82.373-4.523.373-1.33 0-2.607-.107-3.724-.373a8.445 8.445 0 0 1-2.927-1.17 5.527 5.527 0 0 1-1.862-2.129c-.426-.85-.639-1.968-.639-3.245 0-1.277.266-2.342.798-3.193a6.12 6.12 0 0 1 2.129-2.075 8.522 8.522 0 0 1 2.873-1.117 16.242 16.242 0 0 1 3.193-.32c.745 0 1.596.053 2.554.107v-.532Zm0 4.098c-.32-.053-.639-.107-1.011-.16-.373-.053-.692-.053-1.011-.053-1.277 0-2.342.213-3.086.692-.745.478-1.118 1.223-1.118 2.234 0 .692.16 1.224.426 1.597.266.372.638.638 1.064.798.426.16.851.266 1.33.32.48.052.852.052 1.224.052.373 0 .798-.053 1.17-.106.373-.053.746-.107 1.012-.16v-5.214Z" fill="#8f53c0" fill-rule="evenodd" data-name="Path 7"/><path d="M122.46 29.06c.957-.16 1.915-.213 2.82-.213.904 0 1.809.054 2.766.213v20.912c0 .798.053 1.49.16 1.968.106.48.213.905.426 1.17.212.267.478.48.798.586.319.107.691.16 1.17.16.213 0 .426 0 .692-.053.266 0 .479-.054.745-.107.266 1.064.426 2.129.426 3.193v.585c0 .16-.054.373-.054.585-.425.107-.957.213-1.543.266-.585.054-1.17.054-1.65.054-2.021 0-3.67-.586-4.894-1.703-1.224-1.117-1.863-2.98-1.863-5.534V29.06Z" fill="#8f53c0" fill-rule="evenodd" data-name="Path 8"/><path d="M144.275 58.645c-1.65 0-3.14-.266-4.363-.798a8.225 8.225 0 0 1-3.086-2.288 9.524 9.524 0 0 1-1.81-3.406c-.425-1.277-.638-2.714-.638-4.203 0-1.49.213-2.927.639-4.257.425-1.33 1.01-2.501 1.809-3.459a7.957 7.957 0 0 1 3.086-2.288c1.224-.532 2.714-.851 4.363-.851 1.65 0 3.14.266 4.363.851a8.372 8.372 0 0 1 3.086 2.288 9.333 9.333 0 0 1 1.81 3.459c.372 1.33.585 2.767.585 4.257 0 1.49-.213 2.926-.585 4.203a9.524 9.524 0 0 1-1.81 3.406c-.798.957-1.862 1.702-3.086 2.288-1.224.532-2.713.798-4.363.798Zm0-4.31c1.49 0 2.554-.532 3.193-1.65.638-1.117.957-2.713.957-4.735 0-2.076-.319-3.672-.957-4.736-.639-1.117-1.703-1.65-3.193-1.65-1.437 0-2.5.533-3.192 1.65-.639 1.117-.958 2.714-.958 4.736 0 2.075.319 3.671.958 4.735.691 1.118 1.702 1.65 3.192 1.65Z" fill="#8f53c0" fill-rule="evenodd" data-name="Path 9"/><path d="M167.368 58.645c-1.65 0-3.14-.266-4.363-.798a8.225 8.225 0 0 1-3.086-2.288 9.525 9.525 0 0 1-1.81-3.406c-.425-1.277-.638-2.714-.638-4.203 0-1.49.213-2.927.639-4.257.425-1.33 1.01-2.501 1.809-3.459a7.957 7.957 0 0 1 3.086-2.288c1.277-.532 2.713-.851 4.363-.851 1.65 0 3.14.266 4.363.851a8.371 8.371 0 0 1 3.086 2.288 9.334 9.334 0 0 1 1.81 3.459c.372 1.33.585 2.767.585 4.257 0 1.49-.213 2.926-.586 4.203a9.525 9.525 0 0 1-1.809 3.406c-.798.957-1.862 1.702-3.086 2.288-1.224.532-2.714.798-4.363.798Zm0-4.31c1.49 0 2.554-.532 3.193-1.65.638-1.117.957-2.713.957-4.735 0-2.076-.319-3.672-.957-4.736-.639-1.117-1.703-1.65-3.193-1.65-1.437 0-2.5.533-3.193 1.65-.638 1.117-.957 2.714-.957 4.736 0 2.075.319 3.671.957 4.735.692 1.118 1.756 1.65 3.193 1.65Z" fill="#8f53c0" fill-rule="evenodd" data-name="Path 10"/><path d="M180.564 37.574v-1.011c0-1.277.213-2.395.585-3.406.373-1.01.958-1.809 1.65-2.5.691-.692 1.596-1.171 2.554-1.544 1.01-.372 2.075-.532 3.299-.532.798 0 1.49.054 2.022.107.532.053 1.117.213 1.756.372-.054.852-.16 1.65-.266 2.395-.107.691-.32 1.383-.586 2.075-.32-.053-.585-.107-.904-.16a7.641 7.641 0 0 0-1.277-.106c-.905 0-1.703.213-2.288.638-.586.426-.905 1.384-.958 2.82v.852h4.789c.053.425.106.798.16 1.17 0 .32.053.692.053 1.065 0 .319 0 .691-.054 1.01-.053.32-.053.692-.16 1.065h-4.788v16.282c-.958.16-1.862.213-2.767.213-.905 0-1.862-.054-2.82-.213V37.574Z" fill="#8f53c0" fill-rule="evenodd" data-name="Path 11"/></g></g></g></svg>