<svg width="22" height="22" viewBox="0 0 22 22" fill="none" xmlns="http://www.w3.org/2000/svg">
<g clip-path="url(#clip0_625_11946)">
<path d="M3 5C3 4.46957 3.21071 3.96086 3.58579 3.58579C3.96086 3.21071 4.46957 3 5 3H17C17.5304 3 18.0391 3.21071 18.4142 3.58579C18.7893 3.96086 19 4.46957 19 5V17C19 17.5304 18.7893 18.0391 18.4142 18.4142C18.0391 18.7893 17.5304 19 17 19H5C4.46957 19 3.96086 18.7893 3.58579 18.4142C3.21071 18.0391 3 17.5304 3 17V5Z" stroke="#6B7280" stroke-width="1.75" stroke-linecap="round" stroke-linejoin="round"/>
<path d="M3 11H19" stroke="#6B7280" stroke-width="1.75" stroke-linecap="round" stroke-linejoin="round"/>
<path d="M11 3V19" stroke="#6B7280" stroke-width="1.75" stroke-linecap="round" stroke-linejoin="round"/>
</g>
<defs>
<clipPath id="clip0_625_11946">
<rect width="24" height="24" fill="white" transform="translate(-1 -1)"/>
</clipPath>
</defs>
</svg>
