<svg width="20" height="20" viewBox="0 0 20 20" fill="none" xmlns="http://www.w3.org/2000/svg">
<path d="M15.8337 18.3334H4.16699C2.7869 18.3318 1.6685 17.2134 1.66699 15.8334V12.5C1.66699 12.0398 2.04009 11.6667 2.50033 11.6667C2.96056 11.6667 3.33366 12.0398 3.33366 12.5V15.8334C3.33397 16.2935 3.70688 16.6664 4.16699 16.6667H15.8337C16.2938 16.6664 16.6667 16.2935 16.667 15.8334V12.5C16.667 12.0398 17.0401 11.6667 17.5003 11.6667C17.9606 11.6667 18.3337 12.0398 18.3337 12.5V15.8334C18.3322 17.2134 17.2138 18.3318 15.8337 18.3334Z" fill="#B8B8B8"/>
<path d="M13.9222 5.24416L10.5889 1.91083C10.2637 1.58543 9.73626 1.58529 9.41085 1.91051C9.41075 1.91061 9.41064 1.91072 9.41053 1.91083L6.0772 5.24416C5.75389 5.57165 5.75727 6.09921 6.08476 6.42252C6.40928 6.74291 6.93107 6.7429 7.25558 6.4225L9.16642 4.51171V12.5C9.16642 12.9602 9.53951 13.3333 9.99975 13.3333C10.46 13.3333 10.8331 12.9602 10.8331 12.5V4.51171L12.7439 6.42255C13.0714 6.74589 13.5989 6.74256 13.9223 6.41511C14.2427 6.09057 14.2427 5.56869 13.9222 5.24416Z" fill="#8F53C0"/>
</svg>
