<svg id="user_12_" data-name="user(12)" xmlns="http://www.w3.org/2000/svg" width="19.748" height="21.942" viewBox="0 0 19.748 21.942">
  <path id="Ellipse_2" data-name="Ellipse 2" d="M5.474,1.612A3.862,3.862,0,1,0,9.335,5.474,3.866,3.866,0,0,0,5.474,1.612M5.474,0A5.474,5.474,0,1,1,0,5.474,5.474,5.474,0,0,1,5.474,0Z" transform="translate(4.398 0)"/>
  <path id="Path_12" data-name="Path 12" d="M12.874,14.612c-4.357,0-7.936,2.939-8.241,6.651H21.116c-.3-3.712-3.885-6.651-8.241-6.651m0-1.612c5.445,0,9.874,3.937,9.874,8.777a1.1,1.1,0,0,1-1.1,1.1H4.1a1.1,1.1,0,0,1-1.1-1.1C3,16.937,7.43,13,12.874,13Z" transform="translate(-3 -0.932)"/>
</svg>
